<?xml version="1.0" encoding="utf-8"?>
<!-- Generator: Adobe Illustrator 27.5.0, SVG Export Plug-In . SVG Version: 6.00 Build 0)  -->
<svg version="1.1" id="Layer_1" xmlns="http://www.w3.org/2000/svg" xmlns:xlink="http://www.w3.org/1999/xlink" x="0px" y="0px"
	 viewBox="0 0 4000 4000" style="enable-background:new 0 0 4000 4000;" xml:space="preserve">
<g>
	<g>
		<rect style="fill:#D9D0CB;" width="4000" height="4000"/>
	</g>
	<g>
		<g>
			<g>
				<path style="fill:#FFD81A;" d="M696.375,2509.222l682.056,298.693c70.365,30.815,150.706,29.206,219.781-4.4l963.128-468.582
					c46.366-22.558,62.9-80.366,35.473-124.029l-289.922-461.556c-20.054-31.927-49.125-57.246-83.536-72.652
					c-152.958-68.483-300.979-150.8-440.081-196.629c-40.724-13.417-84.791-12.478-125.024,2.347
					c-218.572,80.538-464.792,205.527-721.667,317.298c-42.543,18.511-76.917,51.901-96.64,93.896l-208.265,443.455
					C600.976,2402.432,630.221,2480.252,696.375,2509.222z"/>
			</g>
			<g style="opacity:0.75;">
				<path style="fill:#FFFFFF;" d="M967.392,2015.068l-175.25,466.05c0,0-124.45-31.75-124.95-104.15l196.55-405.05
					c8.1,7.55,19.4,15.3,35,21C918.642,2000.218,944.892,2008.418,967.392,2015.068z"/>
			</g>
			<g>
				<path style="fill:#F4A60C;" d="M1845.171,1666.089v-74.797l-122.28-53.159c0,0-714.179,310.204-712.601,309.519
					c1.578-0.686,169.129,54.784,169.129,54.784c156.691-111.399,586.612-205.289,786.839-182.152L1845.171,1666.089z"/>
			</g>
			<g>
				<path style="fill:#F4A60C;" d="M2245.911,1753.673c0.744-0.788,243.839,398.432,244.583,443.804
					c0.744,45.372,23.058,78.843-95.207,147.273c-118.265,68.43-772.066,388.264-772.066,388.264s-119.752,66.198-229.091,25.289
					c-109.339-40.909-541.488-229.091-541.488-229.091s632.27,242.084,603.967-395.702c0,0,56.777,31.983,122.975,3.967
					c66.198-28.017,94.821-52.745,94.821-52.745L2245.911,1753.673z"/>
			</g>
			<g>
				<path style="fill:#380377;" d="M1483.573,2847.469c-38.14,0-76.313-7.822-112.163-23.521l-682.056-298.696
					c-36.358-15.918-64.067-45.146-78.032-82.3c-13.96-37.153-12.358-77.397,4.512-113.325l208.267-443.462
					c21.543-45.874,59.014-82.275,105.498-102.5c93.272-40.586,185.63-83.14,274.946-124.297
					c158.364-72.974,307.944-141.895,447.651-193.374c43.926-16.177,92.417-17.08,136.553-2.549
					c93.574,30.83,189.092,76.992,290.225,125.864c49.404,23.877,100.493,48.564,151.528,71.416
					c37.671,16.865,69.209,44.292,91.206,79.317L2611.63,2201.6c15.713,25.01,20.063,55.644,11.943,84.048
					c-8.125,28.399-28.018,52.1-54.58,65.024l-963.125,468.579C1567.245,2838.04,1525.429,2847.469,1483.573,2847.469z
					 M1724.291,1488.152c-20.322,0-40.684,3.569-59.995,10.684c-138.413,51.001-287.383,119.644-445.103,192.319
					c-89.482,41.23-182.012,83.867-275.63,124.6c-38.682,16.831-69.858,47.119-87.783,85.293l-208.267,443.457
					c-12.822,27.305-14.038,57.896-3.428,86.133c10.615,28.237,31.675,50.454,59.312,62.554l0,0l682.056,298.696
					c65.771,28.804,140.532,27.3,205.103-4.112l963.125-468.579c17.637-8.579,30.85-24.316,36.24-43.174
					c5.396-18.857,2.505-39.199-7.93-55.81l-289.922-461.558c-18.306-29.141-44.536-51.958-75.869-65.986
					c-51.499-23.057-102.822-47.861-152.456-71.846c-100.059-48.354-194.57-94.028-285.952-124.136
					C1760.512,1490.994,1742.416,1488.152,1724.291,1488.152z"/>
			</g>
			<g>
				<path style="fill:#380377;" d="M1517.621,2160.862c-22.207,0-44.37-3.565-66.406-10.708c-0.215-0.069-0.43-0.142-0.645-0.22
					L918.52,1954.222c-18.247-6.714-33.467-17.92-44.023-32.402c-14.976-20.557-19.736-44.712-13.413-68.008
					c7.993-29.458,32.324-54.37,68.506-70.142c8.843-3.887,19.16,0.186,23.032,9.048c3.862,8.857-0.186,19.17-9.048,23.032
					c-25.874,11.284-43.628,28.496-48.711,47.227c-3.54,13.037-0.801,26.26,7.92,38.232c6.465,8.872,16.089,15.845,27.822,20.161
					l531.724,195.596c48.13,15.513,95.298,11.015,144.17-13.745l588.237-334.507c0.249-0.146,0.503-0.278,0.762-0.41
					c29.771-15.044,47.832-32.896,48.315-47.749c0.356-10.859-9.751-18.472-15.806-22.046c-8.325-4.912-11.094-15.644-6.182-23.965
					c4.922-8.33,15.664-11.084,23.965-6.182c21.665,12.783,33.696,32.222,33.008,53.33c-0.664,20.239-12.856,50.112-67.129,77.651
					l-588.228,334.502c-0.239,0.137-0.478,0.263-0.723,0.39C1587.836,2151.975,1552.675,2160.862,1517.621,2160.862z"/>
			</g>
			<g>
				<path style="fill:#380377;" d="M1539.228,2064.661c-2.031,0-4.067-0.352-6.016-1.064l-536.338-196.294
					c-6.719-2.461-11.265-8.765-11.475-15.918c-0.215-7.158,3.955-13.716,10.518-16.567l720-312.734
					c4.463-1.934,9.507-1.929,13.95,0l416.528,181.079c6.128,2.666,10.205,8.589,10.503,15.264
					c0.303,6.675-3.223,12.939-9.087,16.143l-600.19,327.949C1545.019,2063.938,1542.128,2064.661,1539.228,2064.661z
					 M1050.014,1849.48l487.783,178.521l561.846-306.997l-376.758-163.789L1050.014,1849.48z"/>
			</g>
			<g>
				<path style="fill:#380377;" d="M1098.051,1900.672c-5.772,0-11.275-3.35-13.745-8.975c-3.33-7.588,0.122-16.436,7.705-19.766
					l624.849-274.307c3.877-1.699,8.291-1.689,12.158,0.044l335.054,149.956c7.563,3.384,10.947,12.256,7.563,19.819
					c-3.384,7.559-12.231,10.947-19.819,7.563l-328.984-147.241l-618.76,271.636
					C1102.109,1900.262,1100.063,1900.672,1098.051,1900.672z"/>
			</g>
			<g>
				<path style="fill:#380377;" d="M1561.474,2141.609l-20.562,503.892c-0.664,11.401-17.748,11.328-17.861-0.513
					c0,0,8.432-504.238,8.432-504.238C1532.407,2120.839,1561.609,2121.425,1561.474,2141.609L1561.474,2141.609z"/>
			</g>
			<g style="opacity:0.75;">
				<path style="fill:#FFFFFF;" d="M1551.817,2073.014c88.848-17.564,506.125-239.504,623.802-343.141L1551.817,2073.014z"/>
			</g>
		</g>
		<g>
			<g>
				<path style="fill:#FFD81A;" d="M1643.971,2929.618l682.056,298.694c70.365,30.815,150.706,29.206,219.781-4.4l963.127-468.582
					c46.366-22.558,62.9-80.366,35.473-124.029l-289.922-461.556c-20.054-31.927-49.125-57.246-83.536-72.652
					c-152.958-68.483-300.979-150.8-440.081-196.63c-40.724-13.417-84.791-12.478-125.024,2.347
					c-218.572,80.538-464.792,205.527-721.667,317.297c-42.543,18.511-76.917,51.902-96.64,93.896l-208.265,443.455
					C1548.573,2822.828,1577.818,2900.648,1643.971,2929.618z"/>
			</g>
			<g style="opacity:0.75;">
				<path style="fill:#FFFFFF;" d="M1914.988,2435.464l-175.25,466.05c0,0-124.45-31.75-124.95-104.15l196.55-405.05
					c8.1,7.55,19.4,15.3,35,21C1866.238,2420.614,1892.488,2428.814,1914.988,2435.464z"/>
			</g>
			<g>
				<path style="fill:#F4A60C;" d="M2792.768,2086.485v-74.797l-122.28-53.159c0,0-714.179,310.205-712.601,309.519
					c1.578-0.685,169.129,54.784,169.129,54.784c156.691-111.399,586.612-205.289,786.839-182.152L2792.768,2086.485z"/>
			</g>
			<g>
				<path style="fill:#F4A60C;" d="M3193.508,2174.069c0.744-0.789,243.84,398.432,244.583,443.804
					c0.744,45.372,23.058,78.843-95.207,147.273c-118.264,68.43-772.066,388.264-772.066,388.264s-119.752,66.198-229.091,25.289
					c-109.339-40.909-541.488-229.091-541.488-229.091s632.27,242.084,603.967-395.702c0,0,56.777,31.983,122.975,3.967
					c66.198-28.016,94.821-52.745,94.821-52.745L3193.508,2174.069z"/>
			</g>
			<g>
				<path style="fill:#380377;" d="M2431.171,3267.864c-38.145,0.005-76.313-7.822-112.163-23.521l-682.061-298.696
					c-36.353-15.923-64.063-45.146-78.027-82.3c-13.96-37.153-12.358-77.397,4.512-113.325l208.267-443.462
					c21.543-45.874,59.014-82.275,105.498-102.5c93.271-40.586,185.63-83.139,274.946-124.297
					c158.364-72.974,307.944-141.894,447.651-193.374c43.926-16.177,92.417-17.085,136.553-2.549
					c93.574,30.83,189.092,76.992,290.225,125.864c49.404,23.877,100.493,48.564,151.528,71.416
					c37.666,16.86,69.204,44.287,91.206,79.316l289.922,461.558c15.713,25.01,20.063,55.644,11.943,84.048
					c-8.125,28.399-28.018,52.1-54.58,65.024l-963.125,468.584C2514.843,3258.44,2473.022,3267.864,2431.171,3267.864z
					 M2671.889,1908.548c-20.322,0-40.684,3.569-59.995,10.684c-138.413,51.001-287.383,119.644-445.103,192.319
					c-89.482,41.23-182.012,83.867-275.63,124.6c-38.682,16.831-69.858,47.119-87.783,85.293L1595.112,2764.9
					c-12.822,27.304-14.043,57.896-3.428,86.133c10.61,28.237,31.675,50.454,59.307,62.554l682.061,298.696
					c65.767,28.799,140.522,27.305,205.103-4.107l963.125-468.584c17.637-8.579,30.85-24.316,36.24-43.174
					c5.396-18.857,2.505-39.199-7.93-55.81l-289.922-461.558c-18.306-29.146-44.541-51.963-75.869-65.986
					c-51.499-23.056-102.822-47.861-152.456-71.846c-100.059-48.354-194.57-94.028-285.952-124.136
					C2708.11,1911.39,2690.014,1908.548,2671.889,1908.548z"/>
			</g>
			<g>
				<path style="fill:#380377;" d="M2465.214,2581.258c-22.207,0-44.365-3.565-66.401-10.708c-0.215-0.069-0.43-0.142-0.645-0.22
					l-532.051-195.713c-18.242-6.709-33.467-17.915-44.028-32.407c-14.971-20.552-19.731-44.702-13.408-67.998
					c7.993-29.463,32.324-54.37,68.506-70.147c8.857-3.886,19.17,0.181,23.032,9.048c3.862,8.858-0.186,19.17-9.048,23.032
					c-25.874,11.284-43.628,28.496-48.716,47.231c-3.535,13.037-0.796,26.255,7.925,38.228c6.47,8.877,16.089,15.85,27.817,20.161
					l531.724,195.596c48.135,15.508,95.298,11.016,144.175-13.75l588.237-334.507c0.249-0.142,0.503-0.274,0.762-0.405
					c29.771-15.044,47.832-32.896,48.315-47.749c0.356-10.859-9.751-18.472-15.806-22.046c-8.325-4.912-11.094-15.645-6.182-23.965
					c4.922-8.33,15.664-11.079,23.965-6.181c21.665,12.783,33.696,32.222,33.008,53.33c-0.664,20.239-12.856,50.117-67.129,77.656
					l-588.232,334.502c-0.239,0.132-0.479,0.259-0.723,0.385C2535.429,2572.366,2500.273,2581.253,2465.214,2581.258z"/>
			</g>
			<g>
				<path style="fill:#380377;" d="M2486.825,2485.056c-2.031,0-4.067-0.352-6.016-1.064l-536.338-196.294
					c-6.719-2.461-11.265-8.764-11.475-15.918c-0.215-7.158,3.955-13.716,10.518-16.567l720-312.734
					c4.463-1.929,9.507-1.929,13.95,0l416.528,181.079c6.128,2.666,10.205,8.589,10.503,15.263
					c0.303,6.675-3.223,12.939-9.087,16.143l-600.19,327.949C2492.616,2484.334,2489.726,2485.056,2486.825,2485.056z
					 M1997.612,2269.876l487.783,178.521l561.846-306.997l-376.758-163.789L1997.612,2269.876z"/>
			</g>
			<g>
				<path style="fill:#380377;" d="M2045.649,2321.067c-5.771,0-11.274-3.35-13.745-8.975c-3.33-7.588,0.122-16.436,7.705-19.766
					l624.849-274.307c3.877-1.704,8.291-1.689,12.158,0.044l335.049,149.956c7.563,3.384,10.947,12.256,7.563,19.819
					c-3.379,7.564-12.241,10.952-19.819,7.564l-328.979-147.241l-618.76,271.635
					C2049.706,2320.657,2047.66,2321.067,2045.649,2321.067z"/>
			</g>
			<g>
				<path style="fill:#380377;" d="M2509.067,2562.005l-20.093,503.906c-0.21,5.186-4.58,9.224-9.766,9.019
					c-5.112-0.205-9.111-4.468-9.023-9.556l8.896-504.228C2480.018,2541.255,2509.189,2541.835,2509.067,2562.005L2509.067,2562.005
					z"/>
			</g>
			<g style="opacity:0.75;">
				<path style="fill:#FFFFFF;" d="M2499.413,2493.41c88.848-17.564,506.125-239.504,623.802-343.14L2499.413,2493.41z"/>
			</g>
		</g>
		<g>
			<g>
				<path style="fill:#FFD81A;" d="M1131.897,1569.846l542.374,510.146c55.954,52.629,132.182,78.06,208.527,69.567
					l1063.775-140.787c51.247-5.701,86.21-54.615,75.016-104.948l-117.605-509.694c-8.185-36.804-27.08-70.406-54.331-96.461
					c-121.131-115.816-239.224-257.702-354.898-347.53c-33.865-26.299-75.695-40.193-118.57-39.72
					c-232.923,2.568-500.549,52.43-780.032,71.574c-46.287,3.171-89.869,23.098-122.534,56.046l-344.932,347.921
					C1077.84,1437.245,1079.291,1520.366,1131.897,1569.846z"/>
			</g>
			<g style="opacity:0.75;">
				<path style="fill:#FFFFFF;" d="M1552.95,1195.208l-321.407,380.28c0,0-106.593-71.65-82.782-140.024l321.014-315.669
					c5.099,9.829,13.145,20.92,25.93,31.522C1512.004,1164.868,1533.983,1181.397,1552.95,1195.208z"/>
			</g>
			<g>
				<path style="fill:#F4A60C;" d="M2496.931,1160.838l25.086-70.465L2418.396,984.59c0,0-770.599,67.403-768.882,67.287
					c1.717-0.116,140.96,108.335,140.96,108.335c184.977-52.395,621.487,3.343,802.357,92.294L2496.931,1160.838z"/>
			</g>
			<g>
				<path style="fill:#F4A60C;" d="M2845.086,1377.752c0.966-0.493,95.853,452.694,90.949,497.807
					c-3.719,34.215-14.824,61.967-149.189,86.769c-134.365,24.802-856.842,129.201-856.842,129.201s-135.018,22.201-224.304-53.01
					s-433.291-397.43-433.291-397.43s514.458,440.118,701.699-170.221c0,0,42.762,49.173,114.522,44.981
					c71.76-4.192,107.019-17.889,107.019-17.889L2845.086,1377.752z"/>
			</g>
			<g>
				<path style="fill:#380377;" d="M1853.803,2168.646c-71.006,0-139.36-26.841-191.518-75.904l-542.378-510.146
					c-28.911-27.197-45.215-64.028-45.908-103.711c-0.688-39.683,14.316-77.061,42.261-105.244l344.932-347.92
					c35.679-35.991,83.184-57.72,133.765-61.191l779.634-71.538c1.221-0.112,2.451-0.083,3.687-0.083
					c46.011,0,91.104,15.371,127.212,43.408c73.745,57.271,146.299,133.14,223.11,213.467
					c43.486,45.479,88.457,92.505,133.149,135.234c29.829,28.52,50.342,64.937,59.321,105.313l117.568,509.556
					c6.445,28.97,0.273,59.292-16.904,83.325c-17.173,24.028-43.867,39.688-73.228,42.954l-1063.413,140.742
					C1874.643,2168.069,1864.189,2168.646,1853.803,2168.646z M1143.891,1557.098l542.368,510.146
					c52.309,49.194,123.257,72.861,194.604,64.922l1063.413-140.742c19.854-2.212,37.578-12.607,48.984-28.564
					c11.401-15.957,15.503-36.089,11.24-55.239l-117.568-509.556c-7.5-33.731-24.565-64.028-49.375-87.744
					c-45.259-43.276-90.503-90.591-134.258-136.348c-75.894-79.365-147.573-154.326-219.277-210.01
					c-29.99-23.291-67.476-36.055-105.742-36.055c-0.405,0-0.811,0-1.216,0l-779.316,71.509
					c-42.485,2.92-82.017,21.001-111.704,50.942l-344.932,347.92c-21.235,21.426-32.642,49.834-32.119,79.995
					C1109.521,1508.435,1121.913,1536.429,1143.891,1557.098z"/>
			</g>
			<g>
				<path style="fill:#380377;" d="M2096.415,1529.5c-49.639,0-94.243-14.99-132.969-44.756c-0.181-0.142-0.361-0.283-0.537-0.43
					l-435.596-362.817c-14.937-12.451-25.523-28.11-30.606-45.293c-7.212-24.39-3.599-48.735,10.176-68.569
					c17.407-25.068,48.682-40.376,88.057-43.101c9.663-0.688,18.003,6.602,18.667,16.245c0.669,9.644-6.606,18.003-16.245,18.667
					c-28.159,1.953-50.664,12.217-61.733,28.154c-7.705,11.099-9.561,24.468-5.356,38.677c3.115,10.527,9.839,20.322,19.443,28.33
					l435.327,362.593c40.156,30.752,86.094,42.334,140.435,35.4l666.357-117.842c0.283-0.049,0.566-0.093,0.85-0.132
					c33.091-4.185,56.094-14.941,61.533-28.774c3.979-10.112-2.988-20.679-7.495-26.079c-6.196-7.422-5.2-18.457,2.217-24.648
					c7.432-6.196,18.462-5.2,24.648,2.217c16.123,19.312,20.933,41.66,13.203,61.318c-7.407,18.843-28.916,42.896-89.282,50.635
					l-666.348,117.842c-0.269,0.049-0.537,0.088-0.806,0.122C2118.803,1528.753,2107.48,1529.5,2096.415,1529.5z"/>
			</g>
			<g>
				<path style="fill:#380377;" d="M2080.903,1434.729c-4.053,0-8.013-1.411-11.177-4.033l-439.438-364.805
					c-5.459-4.536-7.642-11.914-5.527-18.687c2.119-6.772,8.115-11.597,15.181-12.212l776.934-67.837
					c5.054-0.493,10.02,1.323,13.652,4.819l337.925,324.985c4.785,4.6,6.558,11.514,4.57,17.852
					c-1.987,6.333-7.388,10.996-13.945,12.041l-675.42,107.656C2082.739,1434.656,2081.821,1434.729,2080.903,1434.729z
					 M1685.4,1066.155l400.581,332.544l632.876-100.874l-306.86-295.112L1685.4,1066.155z"/>
			</g>
			<g>
				<path style="fill:#380377;" d="M2665.439,1336.912c-3.809,0-7.617-1.44-10.542-4.331l-266.621-263.413l-667.437,62.886
					c-8.213,0.884-15.566-5.273-16.338-13.525c-0.781-8.247,5.278-15.562,13.525-16.338l674.404-63.545
					c4.404-0.435,8.789,1.147,11.948,4.263l271.602,268.335c5.894,5.82,5.952,15.317,0.127,21.211
					C2673.173,1335.423,2669.306,1336.912,2665.439,1336.912z"/>
			</g>
			<g>
				<path style="fill:#380377;" d="M2070.18,1513.67l-189.844,467.236c-3.573,8.563-16.925,3.831-13.701-5.328
					c0,0,175.581-472.778,175.581-472.778C2049.739,1484.275,2077.154,1494.659,2070.18,1513.67L2070.18,1513.67z"/>
			</g>
			<g style="opacity:0.75;">
				<path style="fill:#FFFFFF;" d="M2084.091,1445.807c89.593,13.251,557.137-55.884,702.756-114.051L2084.091,1445.807z"/>
			</g>
		</g>
		<g>
			<path style="fill:#380377;" d="M2431.166,3285.364c-41.216,0-81.313-8.408-119.185-24.99l-682.056-298.696
				c-40.713-17.832-71.748-50.571-87.388-92.177c-1.216-3.233-2.334-6.538-3.35-9.893c-18.486,3.56-37.124,5.361-55.615,5.361
				c-41.221,0-81.318-8.408-119.184-24.995l-682.056-298.691c-40.713-17.832-71.753-50.566-87.393-92.173
				c-15.635-41.611-13.843-86.689,5.054-126.924l208.267-443.457c22.08-47.012,60.073-85.264,106.987-107.71
				c2.217-1.079,4.595-2.178,7.021-3.237c84.902-36.948,168.335-75.2,249.365-112.515l-63.716-59.927
				c-32.378-30.459-50.64-71.709-51.416-116.147c-0.776-44.443,16.03-86.304,47.329-117.876l344.932-347.92
				c36.563-36.875,85.171-60.166,136.865-65.586c2.529-0.283,5.229-0.532,7.969-0.728l779.385-71.519
				c0.913-0.088,1.865-0.137,2.827-0.146l2.451-0.015c49.863,0,98.857,16.724,137.959,47.09
				c74.771,58.062,147.754,134.39,225.024,215.195c43.33,45.317,88.135,92.173,132.598,134.678
				c4.063,3.882,8.105,8.086,12.349,12.837c0.415,0.435,0.811,0.889,1.157,1.333l0.215,0.268
				c24.902,28.399,42.388,62.876,50.586,99.727l117.539,509.419c7.544,33.901,0.347,69.365-19.717,97.437
				c-0.254,0.352-0.508,0.703-0.762,1.055c48.965,23.657,99.59,48.115,150.049,70.708c5.083,2.275,10.273,4.863,15.84,7.9
				c0.308,0.146,0.605,0.302,0.874,0.454c0.171,0.097,0.337,0.195,0.503,0.293l0.62,0.391c32.959,18.403,60.972,45,81.03,76.938
				l289.922,461.558c18.35,29.214,23.433,64.995,13.95,98.164c-9.492,33.179-32.725,60.859-63.75,75.957l-963.13,468.579
				C2520.8,3274.998,2475.864,3285.364,2431.166,3285.364z M1552.079,2821.311c3.306,0,6.572,0.938,9.409,2.744
				c4.067,2.593,6.885,6.758,7.783,11.499c1.421,7.49,3.447,14.766,6.03,21.631c12.29,32.695,36.675,58.418,68.667,72.432
				l682.056,298.696c33.413,14.634,68.789,22.051,105.142,22.051c39.424,0,79.063-9.15,114.639-26.455l963.13-468.579
				c22.1-10.752,38.652-30.474,45.41-54.106c6.758-23.628,3.135-49.116-9.937-69.927l-289.922-461.558
				c-17.012-27.09-40.801-49.629-68.794-65.18c-0.171-0.098-0.337-0.191-0.503-0.293c-0.068-0.039-0.229-0.142-0.4-0.244
				c-0.073-0.044-0.146-0.083-0.22-0.122c-4.736-2.593-9.243-4.849-13.608-6.802c-50.962-22.817-101.855-47.407-151.074-71.186
				l-20.864-10.078c-5.254-2.539-8.896-7.524-9.717-13.301s1.289-11.577,5.625-15.479c4.722-4.238,8.945-8.955,12.563-14.014
				c14.292-20,19.419-45.278,14.063-69.355l-117.544-509.419c-6.982-31.387-21.846-60.62-43.013-84.668
				c-0.122-0.137-0.239-0.278-0.356-0.415c-0.054-0.063-0.161-0.205-0.278-0.347c-0.039-0.044-0.078-0.093-0.122-0.137
				c-3.682-4.131-7.148-7.744-10.586-11.03c-45.029-43.052-90.112-90.195-133.706-135.791
				c-76.353-79.849-148.472-155.264-221.196-211.738c-32.993-25.625-74.365-39.736-116.494-39.736l-2.041,0.015l-779.663,71.543
				c-0.185,0.015-0.371,0.029-0.552,0.044c-2.227,0.156-4.419,0.357-6.582,0.601c-43.838,4.595-84.912,24.277-115.806,55.43
				l-344.932,347.92c-24.59,24.81-37.803,57.705-37.192,92.622c0.61,34.922,14.961,67.334,40.41,91.265l82.617,77.71
				c4.238,3.989,6.216,9.819,5.278,15.562c-0.933,5.747-4.663,10.645-9.946,13.081c-88.55,40.801-180.117,82.988-273.271,123.516
				c-2.275,1.006-4.214,1.899-6.113,2.827c-39.761,19.023-71.87,51.348-90.527,91.074l-208.267,443.452
				c-14.844,31.616-16.255,67.036-3.97,99.732c12.29,32.695,36.68,58.418,68.672,72.427l682.056,298.691
				c33.408,14.634,68.784,22.056,105.142,22.056c21.343,0,42.949-2.734,64.204-8.12
				C1549.198,2821.487,1550.644,2821.311,1552.079,2821.311z"/>
		</g>
		<g>
			<g>
				<g>
					<path style="fill:#FFD81A;" d="M3519.779,1857.239c0-20.027-36.313-32.264-88.783-37.494
						c-14.883-1.484-26.587-13.506-27.652-28.424c-4.706-65.972-17.161-112.621-38.291-112.621s-33.584,46.649-38.291,112.621
						c-1.064,14.919-12.769,26.941-27.652,28.424c-52.469,5.23-88.783,17.467-88.783,37.494c0,20.027,36.313,32.264,88.783,37.494
						c14.883,1.484,26.587,13.506,27.652,28.424c4.706,65.972,17.161,112.621,38.291,112.621s33.584-46.649,38.291-112.621
						c1.064-14.919,12.769-26.941,27.652-28.424C3483.465,1889.503,3519.779,1877.267,3519.779,1857.239z"/>
				</g>
				<g>
					<path style="fill:#380377;" d="M3365.053,2049.183c-28.76,0-45.659-40.908-51.66-125.073
						c-0.605-8.447-7.168-15.195-15.61-16.035c-67.866-6.768-100.854-23.394-100.854-50.835s32.988-44.067,100.854-50.835
						c8.442-0.84,15.005-7.588,15.61-16.035c6.001-84.165,22.9-125.073,51.66-125.073s45.659,40.908,51.66,125.073
						c0.605,8.447,7.168,15.195,15.61,16.035c67.871,6.763,100.859,23.394,100.859,50.835s-32.988,44.072-100.859,50.835
						c-8.442,0.84-15.005,7.588-15.61,16.035C3410.712,2008.274,3393.813,2049.183,3365.053,2049.183z M3365.053,1692.102
						c-3.525,0-19.043,17.827-24.922,100.171c-1.533,21.509-18.228,38.667-39.692,40.81c-62.612,6.24-76.704,19.873-76.704,24.155
						c0,4.282,14.092,17.915,76.704,24.155c21.465,2.143,38.159,19.302,39.692,40.811c5.879,82.344,21.396,100.171,24.922,100.171
						s19.043-17.827,24.922-100.171c1.533-21.509,18.228-38.667,39.692-40.811c62.612-6.24,76.709-19.873,76.709-24.155
						c0-4.282-14.097-17.915-76.709-24.155c-21.465-2.143-38.159-19.302-39.692-40.81
						C3384.096,1709.929,3368.578,1692.102,3365.053,1692.102z"/>
				</g>
			</g>
			<g>
				<g>
					<path style="fill:#FFD81A;" d="M3322.695,1505.386c0-14.521-26.329-23.393-64.373-27.186
						c-10.791-1.076-19.278-9.792-20.049-20.609c-3.412-47.834-12.443-81.657-27.763-81.657c-15.321,0-24.351,33.823-27.763,81.657
						c-0.772,10.817-9.258,19.534-20.049,20.609c-38.043,3.792-64.373,12.665-64.373,27.186c0,14.521,26.33,23.393,64.373,27.186
						c10.791,1.076,19.278,9.792,20.049,20.609c3.412,47.834,12.442,81.657,27.763,81.657c15.32,0,24.351-33.824,27.763-81.657
						c0.771-10.817,9.258-19.534,20.049-20.609C3296.365,1528.779,3322.695,1519.907,3322.695,1505.386z"/>
				</g>
				<g>
					<path style="fill:#380377;" d="M3210.512,1647.337c-22.905,0-35.693-29.634-40.234-93.267
						c-0.337-4.775-4.048-8.584-8.818-9.063c-50.894-5.073-75.635-18.037-75.635-39.624c0-21.587,24.741-34.546,75.635-39.619
						c4.771-0.479,8.481-4.287,8.818-9.063c4.541-63.633,17.329-93.267,40.234-93.267c22.91,0,35.693,29.634,40.229,93.267
						c0.337,4.775,4.048,8.584,8.818,9.063c50.894,5.073,75.635,18.032,75.635,39.619c0,21.587-24.741,34.551-75.635,39.624
						c-4.771,0.479-8.481,4.287-8.818,9.063C3246.205,1617.703,3233.422,1647.337,3210.512,1647.337z M3110.922,1505.384
						c1.797,2.905,14.434,10.903,53.018,14.751c16.914,1.68,30.068,15.205,31.279,32.158c3.413,47.847,11.475,65.464,15.293,69.478
						c3.813-4.014,11.88-21.631,15.288-69.478c1.211-16.953,14.365-30.479,31.279-32.158c38.584-3.848,51.221-11.846,53.018-14.751
						c-1.802-2.905-14.438-10.898-53.018-14.746c-16.914-1.68-30.068-15.205-31.279-32.158
						c-3.408-47.847-11.475-65.464-15.288-69.478c-3.818,4.014-11.88,21.631-15.293,69.478
						c-1.211,16.953-14.365,30.479-31.279,32.158C3125.361,1494.485,3112.724,1502.478,3110.922,1505.384z M3310.243,1505.667h0.054
						H3310.243z"/>
				</g>
			</g>
		</g>
		<g>
			<g>
				<path style="fill:#FFD81A;" d="M929.424,1473.69c0-14.521-26.329-23.393-64.373-27.186
					c-10.791-1.076-19.278-9.792-20.049-20.609c-3.412-47.834-12.442-81.657-27.763-81.657s-24.351,33.823-27.763,81.657
					c-0.772,10.817-9.258,19.534-20.049,20.609c-38.044,3.792-64.373,12.665-64.373,27.186s26.329,23.393,64.373,27.186
					c10.791,1.076,19.278,9.792,20.049,20.609c3.412,47.834,12.442,81.657,27.763,81.657s24.351-33.824,27.763-81.657
					c0.772-10.817,9.258-19.534,20.049-20.609C903.095,1497.084,929.424,1488.211,929.424,1473.69z"/>
			</g>
			<g>
				<path style="fill:#380377;" d="M817.24,1615.642c-22.905,0-35.693-29.634-40.234-93.267c-0.337-4.776-4.048-8.584-8.818-9.063
					c-50.894-5.073-75.635-18.037-75.635-39.624c0-21.592,24.741-34.551,75.635-39.619c4.77-0.479,8.481-4.292,8.818-9.063
					c4.541-63.633,17.324-93.271,40.234-93.271c22.91,0,35.693,29.639,40.234,93.271c0.337,4.771,4.048,8.584,8.823,9.063
					c50.884,5.068,75.625,18.027,75.625,39.619c0,21.587-24.736,34.551-75.63,39.624c-4.77,0.479-8.481,4.287-8.818,9.063
					C852.934,1586.009,840.146,1615.642,817.24,1615.642z M717.651,1473.689c1.792,2.905,14.429,10.903,53.017,14.751
					c16.914,1.68,30.068,15.205,31.279,32.158c3.413,47.847,11.475,65.464,15.293,69.478c3.814-4.014,11.88-21.631,15.293-69.478
					c1.211-16.953,14.365-30.479,31.279-32.158c38.589-3.848,51.221-11.846,53.013-14.751c-1.792-2.905-14.429-10.903-53.013-14.746
					c-16.914-1.689-30.068-15.215-31.279-32.158c-3.413-47.847-11.479-65.469-15.293-69.482
					c-3.818,4.014-11.88,21.631-15.293,69.482c-1.211,16.943-14.365,30.469-31.274,32.158
					C732.079,1462.786,719.443,1470.784,717.651,1473.689z M916.972,1473.968h0.049H916.972z"/>
			</g>
		</g>
	</g>
</g>
</svg>
