<?xml version="1.0" encoding="utf-8"?>
<!-- Generator: Adobe Illustrator 27.5.0, SVG Export Plug-In . SVG Version: 6.00 Build 0)  -->
<svg version="1.1" id="Layer_1" xmlns="http://www.w3.org/2000/svg" xmlns:xlink="http://www.w3.org/1999/xlink" x="0px" y="0px"
	 viewBox="0 0 4000 4000" style="enable-background:new 0 0 4000 4000;" xml:space="preserve">
<g>
	<g>
		<rect style="fill:#FFF6C0;" width="4000" height="4000"/>
	</g>
	<g>
		<g>
			<ellipse style="fill:#F2D29E;" cx="2000" cy="3534.496" rx="795.687" ry="119.374"/>
		</g>
		<g>
			<g>
				<path style="fill:#FFFFFF;" d="M1878.337,3476.388c-24.383,30.144-249.689,36.677-322.064,5.35
					c-13.888-5.967-22.171-13.323-22.273-22.222c-0.772-55.092,97.067-131.583,97.067-131.583h239.606
					C1870.672,3327.933,1907.4,3440.431,1878.337,3476.388z"/>
			</g>
			<g>
				<path style="fill:#C6D9F4;" d="M1878.337,3476.388c-24.383,30.144-249.689,36.677-322.064,5.35
					c2.418-25.102,17.49-51.645,17.49-51.645c2.675,58.898,246.808-0.412,238.783-40.946
					c-8.076-40.586-144.494-54.577-144.494-54.577l17.489-6.636h185.131C1870.672,3327.933,1907.4,3440.431,1878.337,3476.388z"/>
			</g>
			<g>
				<path style="fill:#FFFFFF;" d="M2129.322,3327.921c0,0-36.73,112.487-7.652,148.452
					c29.078,35.965,343.583,38.261,344.348-16.835c0.765-55.096-97.083-131.618-97.083-131.618"/>
			</g>
			<g>
				<path style="fill:#C6D9F4;" d="M2121.646,3476.388c24.383,30.144,249.689,36.677,322.064,5.35
					c-2.418-25.102-17.49-51.645-17.49-51.645c-2.675,58.898-246.808-0.412-238.783-40.946
					c8.076-40.586,144.494-54.577,144.494-54.577l-17.489-6.636h-185.132C2129.311,3327.933,2092.583,3440.431,2121.646,3476.388z"
					/>
			</g>
			<g>
				<g>
					<path style="fill:#77C4F7;" d="M2442.168,2854.276c0,0-18.827,282.353-73.25,473.657c-74.69,16.049-154.165,17.232-239.606,0
						c0,0-39.403-357.043-129.319-492.535c-89.917,135.492-129.32,492.535-129.32,492.535
						c-71.501,14.403-138.784,15.946-202.621,6.636c-12.449-1.8-24.794-4.012-36.985-6.636
						c-54.423-191.304-73.199-473.657-73.199-473.657c15.638-32.973,116.922-243.361,116.922-243.361l714.96,16.358
						L2442.168,2854.276z"/>
				</g>
			</g>
			<g>
				<path style="fill:#4CA0E5;" d="M1999.992,2816.777v18.621c-89.917,135.492-129.32,492.535-129.32,492.535
					c-71.501,14.403-138.784,15.946-202.621,6.636c-12.089-25.823-33.847-82.458-30.761-160.441c0,0,58.127,96.398,134.669,84.156
					c76.542-12.243,101.027-389.913,101.027-389.913s-89.505-44.752-149.947-115.842
					C1726.281,2754.02,1830.087,2801.705,1999.992,2816.777z"/>
			</g>
			<g>
				<path style="fill:#4CA0E5;" d="M1999.992,2816.777v18.621c89.917,135.492,129.319,492.535,129.319,492.535
					c71.501,14.403,138.784,15.946,202.621,6.636c12.089-25.823,33.847-82.458,30.761-160.441c0,0-58.127,96.398-134.669,84.156
					c-76.542-12.243-101.027-389.913-101.027-389.913s89.505-44.752,149.947-115.842
					C2273.702,2754.02,2169.897,2801.705,1999.992,2816.777z"/>
			</g>
			<g>
				<path style="fill:#5E2519;" d="M1720.266,3520.31c-63.56,0.002-127.91-6.66-161.716-18.352
					c-27.993-9.683-42.317-23.872-42.571-42.17c-0.864-62.227,93.259-137.654,103.994-146.05c7.827-6.116,19.138-4.741,25.266,3.088
					c6.128,7.827,4.749,19.141-3.079,25.271c-34.783,27.246-89.602,82.585-90.176,116.235c2.942,3.694,18.821,13.188,63.794,19.68
					c101.123,14.6,232.686,2.073,248.779-13.218c15.413-19.087,2.595-89.673-10.994-131.287
					c-3.086-9.453,2.073-19.617,11.526-22.703c9.456-3.083,19.617,2.078,22.703,11.526c6.641,20.337,38.069,123.889,4.536,165.361
					C1873.955,3510.423,1797.7,3520.31,1720.266,3520.31z"/>
			</g>
			<g>
				<g>
					<path style="fill:#5E2519;" d="M1748.962,3358.352c-41.299,0-81.953-4.277-121.687-12.832
						c-6.504-1.399-11.707-6.274-13.528-12.673c-54.321-190.925-73.679-474.558-73.867-477.4
						c-0.662-9.922,6.846-18.499,16.768-19.16c9.973-0.657,18.501,6.848,19.16,16.768c0.183,2.754,18.604,272.427,69.646,459.434
						c67.302,13.062,137.458,13.135,208.882,0.229c8.203-67.158,48.257-363.066,130.662-487.292
						c5.496-8.286,16.667-10.547,24.954-5.051s10.549,16.667,5.051,24.954c-86.489,130.388-126.04,481.042-126.428,484.568
						c-0.859,7.786-6.655,14.124-14.331,15.674C1832.041,3354.09,1790.181,3358.352,1748.962,3358.352z"/>
				</g>
				<g>
					<path style="fill:#5E2519;" d="M2251.038,3358.352c-41.223,0-83.074-4.263-125.281-12.783
						c-7.676-1.55-13.469-7.888-14.331-15.671c-0.388-3.528-39.978-354.241-126.428-484.57c-5.498-8.286-3.235-19.458,5.051-24.954
						s19.46-3.235,24.954,5.051c82.405,124.226,122.458,420.134,130.662,487.292c71.426,12.9,141.58,12.825,208.882-0.229
						c51.062-187.075,69.463-456.68,69.646-459.434c0.662-9.917,9.177-17.417,19.16-16.768c9.919,0.659,17.429,9.238,16.768,19.16
						c-0.188,2.842-19.546,286.475-73.867,477.4c-1.821,6.399-7.024,11.274-13.528,12.673
						C2332.996,3354.075,2292.332,3358.352,2251.038,3358.352z"/>
				</g>
			</g>
			<g>
				<path style="fill:#5E2519;" d="M2279.734,3520.31c-77.441,0.002-153.687-9.888-172.065-32.62
					c-33.53-41.47-2.102-145.022,4.539-165.359c3.088-9.451,13.257-14.602,22.695-11.526c9.451,3.083,14.614,13.245,11.536,22.698
					c-13.967,42.876-26.543,112.039-10.769,131.548c15.869,15.029,147.437,27.556,248.552,12.961
					c44.971-6.492,60.852-15.986,63.794-19.68c-0.581-33.652-55.396-88.992-90.176-116.235c-7.827-6.13-9.207-17.444-3.079-25.271
					c6.125-7.834,17.439-9.207,25.266-3.088c10.735,8.396,104.858,83.823,103.994,146.052
					c-0.254,18.296-14.578,32.485-42.571,42.168C2407.649,3513.648,2343.286,3520.31,2279.734,3520.31z"/>
			</g>
			<g>
				<path style="fill:#5E2519;" d="M1861.841,2788.679c101.047,35.062,194.646,28.533,296.177-0.156
					c7.016-1.906,11.29,7.892,4.989,11.677c-91.455,54.906-216.779,60.83-306.815-0.154
					C1850.186,2795.978,1854.953,2786.291,1861.841,2788.679L1861.841,2788.679z"/>
			</g>
			<g>
				<path style="fill:#FFE2D4;" d="M2711.579,2679.908c0,0-26.668,81.468-84.099,77.415s-46.678-69.125-44.383-72.441
					s75.138-45.658,77.616-44.893"/>
			</g>
			<g>
				<path style="fill:#5E2519;" d="M2631.78,2775.479c-1.829,0-3.684-0.063-5.566-0.198c-32.996-2.329-48.469-20.623-55.637-35.562
					c-11.833-24.658-8.154-56.602-2.283-65.083c2.349-3.394,4.045-5.845,44.512-29.307c43.862-25.432,45.107-25.044,53.213-22.546
					c9.502,2.93,14.829,13.008,11.899,22.51c-1.892,6.133-6.76,10.527-12.532,12.085c-9.187,4.192-51.687,28.74-66.23,38.108
					c-0.862,7.888-0.679,22.913,6.289,32.776c4.729,6.697,12.351,10.327,23.303,11.101c42.683,2.964,65.505-64.409,65.732-65.09
					c3.125-9.426,13.296-14.565,22.729-11.448c9.431,3.108,14.57,13.247,11.479,22.683
					C2727.456,2689.278,2698.45,2775.479,2631.78,2775.479z M2655.474,2657.212c0.002,0,0.002,0,0.002,0.002
					C2655.476,2657.212,2655.476,2657.212,2655.474,2657.212z M2655.452,2657.205c0,0.002,0.002,0.002,0.005,0.002
					C2655.454,2657.207,2655.454,2657.207,2655.452,2657.205z M2655.43,2657.2h0.002H2655.43z"/>
			</g>
			<g>
				<path style="fill:#FFE2D4;" d="M2705.451,2488.585c0,0,59.768,186.094-22.366,214.153
					c-82.134,28.058-47.954-107.076-47.954-107.076"/>
			</g>
			<g>
				<path style="fill:#5E2519;" d="M2662.874,2724.544c-15.586,0-26.116-5.994-32.834-12.188
					c-33.186-30.586-16.121-106.252-12.361-121.108c2.437-9.639,12.219-15.486,21.868-13.04c9.641,2.437,15.479,12.229,13.04,21.868
					c-6.919,27.537-11.118,73.865,1.863,85.808c4.983,4.592,15.159,2.429,22.817-0.183c53.286-18.206,25.112-147.693,11.042-191.619
					c-3.032-9.465,2.18-19.602,11.646-22.639c9.463-3.035,19.6,2.17,22.639,11.636c6.672,20.769,62.4,203.87-33.687,236.694
					C2678.977,2723.167,2670.344,2724.544,2662.874,2724.544z"/>
			</g>
			<g>
				<path style="fill:#FFFFFF;" d="M2511.936,2607.828c0,0-112.253,46.936-187.322,61.239
					c-24.104,155.695,31.232,209.671,110.795,232.627c0,0,198.957-185.183,221.914-312.209
					c22.957-127.026-78.052-127.792-82.644-125.496c-4.591,2.296-59.687,66.867-59.687,66.867"/>
			</g>
			<g>
				<path style="fill:#C6D9F4;" d="M2435.394,2901.704c0,0,12.294-11.471,31.121-30.607l-4.167-2.726
					c0,0,112.344-135.801,93.98-161.829c-11.728-16.615-33.95,7.922-48.405,27.777l-0.103,0.103
					c-3.189,2.984-66.357,61.676-83.898,32.613c-17.438-29.063,55.915-75.102,60.03-77.674c-4.167,1.235-70.009,20.936-71.861-0.103
					c-1.44-16.1,19.959-42.489,31.018-54.989c-36.883,13.22-82.098,27.829-118.517,34.825
					C2300.519,2824.75,2355.868,2878.761,2435.394,2901.704z"/>
			</g>
			<g>
				<path style="fill:#5E2519;" d="M2435.408,2919.7c-1.665,0-3.345-0.232-4.988-0.708
					c-106.265-30.659-145.54-110.95-123.599-252.678c1.167-7.527,6.941-13.506,14.424-14.932
					c72.329-13.782,182.642-59.702,183.748-60.166c9.17-3.828,19.717,0.491,23.555,9.668c3.833,9.172-0.493,19.719-9.666,23.555
					c-4.402,1.838-103.208,42.976-178.237,59.69c-18.035,137.373,33.34,178.472,89.971,197.244
					c35.938-34.8,189.814-188.979,208.992-295.09c7.014-38.816,2.246-67.478-14.177-85.19
					c-14.136-15.247-34.236-18.948-43.206-19.514c-9.229,9.69-32.773,36.631-53.535,60.967c-6.455,7.563-17.815,8.462-25.383,2.009
					c-7.563-6.455-8.462-17.817-2.009-25.383c57.471-67.356,61.648-69.443,65.334-71.287c10.413-5.21,46.038-2.446,72.979,17.729
					c23.464,17.571,48.66,53.882,35.432,127.073c-23.752,131.411-219.063,314.46-227.366,322.188
					C2444.299,2918.015,2439.9,2919.698,2435.408,2919.7z"/>
			</g>
			<g>
				<path style="fill:#FFE2D4;" d="M2286.167,2402.018c24.537,29.835,135.646,113.939,135.646,113.939l90.122,91.872
					c0,0,62.756-21.399,101.902-49.896c0.206,31.79,5.144,65.843,25.103,69.032c38.271,6.121,101.902-84.155,54.012-168.311
					c-47.89-84.207-168.774-179.062-168.774-179.062s-9.105-73.559-48.713-154.319c-39.66-80.812-222.168,116.819-222.94,131.325
					C2251.754,2271.156,2261.682,2372.183,2286.167,2402.018z"/>
			</g>
			<g>
				<path style="fill:#F4BCB0;" d="M2438.069,2525.576l82.355,79.165l6.43,6.173c0,0,62.705-10.854,87.19-44.135
					c9.002-12.191,12.86-27.366,6.636-46.141c-23.302-70.061-78.137,16.821-78.137,16.821s-73.456-55.864-86.47-140.791
					c-13.014-84.979,36.368-232.868,36.368-232.868c-4.887-12.448-10.545-25.411-16.975-38.528
					c-20.422-41.563-78.6-9.465-130.451,33.538c-16.512,26.955-30.607,57.458-41.203,87.087
					C2277.783,2318.583,2438.069,2525.576,2438.069,2525.576z"/>
			</g>
			<g>
				<path style="fill:#5E2519;" d="M2642.837,2645.271c-2.268,0-4.517-0.173-6.741-0.53c-25.969-4.15-35.137-31.411-38.408-55.349
					c-37.124,20.759-77.81,34.749-79.941,35.476c-6.555,2.227-13.811,0.51-18.662-4.434l-89.197-90.928
					c-15.652-11.87-113.113-86.245-137.627-116.055c-0.002-0.005-0.007-0.01-0.01-0.015
					c-29.973-36.519-38.376-145.115-37.705-157.793c1.082-20.266,63.826-79.348,70.974-86.018
					c34.27-31.968,83.633-71.812,124.18-80.093c28.303-5.781,50.293,4.094,61.929,27.805
					c33.613,68.538,45.903,131.46,49.326,152.615c25.015,20.251,124.026,103.098,167.646,179.797
					c33.94,59.641,17.715,121.592-6.492,156.521C2684.878,2631.138,2663.171,2645.271,2642.837,2645.271z M2613.84,2539.929
					c2.769,0,5.549,0.637,8.113,1.931c6.028,3.044,9.844,9.204,9.888,15.955c0.288,44.417,9.88,51.338,9.976,51.387
					c5.417,0.864,18.506-5.85,30.698-23.442c19.128-27.598,30.43-73.145,4.79-118.203
					c-45.562-80.11-163.059-172.874-164.241-173.801c-3.74-2.937-6.167-7.234-6.753-11.951
					c-0.085-0.693-9.326-71.765-47.009-148.606c-3.259-6.638-7.31-9.238-14.443-9.265c-0.042,0-0.083,0-0.125,0
					c-50.881,0-159.553,113.018-174.26,136.572c0.398,21.411,10.916,107.28,29.6,130.076l0,0
					c19.021,23.132,102.173,87.983,132.607,111.021c0.703,0.532,1.367,1.118,1.985,1.748l81.995,83.584
					c18.962-7.195,59.373-23.75,86.582-43.557C2606.379,2541.094,2610.1,2539.929,2613.84,2539.929z M2269.429,2262.339
					c0,0.002,0,0,0,0.002C2269.429,2262.342,2269.429,2262.342,2269.429,2262.339z"/>
			</g>
			<g>
				<path style="fill:#5E2519;" d="M2634.427,2506.226c-2.183,18.152-2.878,36.856-2.922,55.161
					c-0.046,9.867-8.086,17.827-17.952,17.773c-9.917-0.046-17.903-8.19-17.763-18.103c0.099-3.331-0.198-5.657,1.165-9.387
					c7.162-18.683,34.695-13.815,34.939,6.211c0,9.944-8.061,18.003-18.004,18.003c1.486-0.024,1.52-0.071,2.141-0.127
					c6.172-0.53,12.663-5.518,14.698-11.604c0.892-2.478,1.089-4.399,1.112-6.091c0.004-0.01-35.698-3.58-35.665-3.606
					c7.264-18.203,14.985-35.854,24.355-53.12C2624.567,2493.988,2635.885,2498.063,2634.427,2506.226L2634.427,2506.226z"/>
			</g>
			<g>
				<path style="fill:#5E2519;" d="M2321.488,2737.502c35.792-8.222,72.273-20.197,106.733-33.816
					c35.128-13.797,69.191-30.221,101.936-49.031c7.708-4.245,14.652,6.861,7.317,11.902
					c-47.937,32.523-99.518,59.527-153.271,81.169c-18.087,7.251-35.935,13.906-55.256,19.724
					c-8.169,2.458-16.786-2.168-19.246-10.337C2307.04,2748.448,2312.602,2739.235,2321.488,2737.502L2321.488,2737.502z"/>
			</g>
			<g>
				<path style="fill:#5E2519;" d="M2359.808,2855.908c54.221-37.774,106.061-80.724,150.23-130.124
					c5.928-6.466,16.021,1.762,10.779,8.887c-30.655,40.942-66.237,77.905-103.87,112.453
					c-12.648,11.523-25.279,22.644-38.883,33.672c-6.628,5.371-16.357,4.353-21.729-2.275
					C2350.587,2871.512,2352.239,2860.873,2359.808,2855.908L2359.808,2855.908z"/>
			</g>
			<g>
				<path style="fill:#FFE2D4;" d="M1288.421,2679.908c0,0,26.668,81.468,84.099,77.415s46.678-69.125,44.383-72.441
					s-75.138-45.658-77.616-44.893"/>
			</g>
			<g>
				<path style="fill:#5E2519;" d="M1368.22,2775.479c-66.68,0-95.676-86.201-96.909-89.971c-3.096-9.448,2.058-19.617,11.509-22.71
					c9.448-3.103,19.597,2.051,22.7,11.479c0.293,0.874,23.162,68.113,65.732,65.085c10.952-0.774,18.574-4.404,23.303-11.101
					c6.968-9.863,7.151-24.888,6.289-32.776c-14.543-9.368-57.043-33.916-66.23-38.108c-5.771-1.558-10.64-5.95-12.532-12.085
					c-2.93-9.502,2.397-19.58,11.899-22.51c8.108-2.495,9.348-2.886,53.213,22.546c40.466,23.462,42.163,25.913,44.512,29.304
					c5.872,8.484,9.551,40.427-2.283,65.085c-7.168,14.939-22.642,33.232-55.637,35.562
					C1371.907,2775.413,1370.044,2775.479,1368.22,2775.479z M1344.504,2657.219c-0.002,0-0.002,0-0.002,0H1344.504z
					 M1344.526,2657.212c0,0-0.002,0.002-0.005,0.002C1344.524,2657.215,1344.526,2657.212,1344.526,2657.212z M1344.548,2657.205
					c0,0.002-0.002,0.002-0.005,0.002C1344.546,2657.207,1344.548,2657.207,1344.548,2657.205z M1344.57,2657.2
					c-0.002,0-0.002,0-0.005,0C1344.568,2657.2,1344.568,2657.2,1344.57,2657.2z"/>
			</g>
			<g>
				<path style="fill:#FFE2D4;" d="M1294.549,2488.585c0,0-59.768,186.094,22.366,214.153
					c82.134,28.058,47.954-107.076,47.954-107.076"/>
			</g>
			<g>
				<path style="fill:#5E2519;" d="M1337.126,2724.544c-7.471,0-16.104-1.377-26.033-4.771
					c-96.086-32.825-40.359-215.925-33.687-236.694c3.037-9.47,13.179-14.668,22.639-11.636
					c9.465,3.037,14.678,13.174,11.646,22.639c-14.07,43.926-42.244,173.413,11.042,191.619c7.659,2.615,17.834,4.775,22.817,0.183
					c12.981-11.943,8.782-58.271,1.858-85.82c-2.422-9.639,3.423-19.424,13.059-21.853c9.626-2.439,19.417,3.401,21.853,13.037
					c3.76,14.856,20.825,90.522-12.361,121.108C1363.242,2718.55,1352.71,2724.544,1337.126,2724.544z"/>
			</g>
			<g>
				<path style="fill:#FFFFFF;" d="M1564.606,2901.704c0,0-12.294-11.471-31.121-30.607
					c-56.944-57.87-173.558-186.16-190.79-281.632c-22.994-127.005,78.034-127.776,82.612-125.462
					c4.629,2.263,59.722,66.872,59.722,66.872l3.035,76.954c0,0,29.732,12.448,68.826,26.44
					c36.882,13.22,82.098,27.829,118.517,34.825C1699.481,2824.75,1644.132,2878.761,1564.606,2901.704z"/>
			</g>
			<g>
				<path style="fill:#C6D9F4;" d="M1564.606,2901.704c0,0-12.294-11.471-31.121-30.607l4.167-2.726
					c0,0-112.344-135.801-93.98-161.829c11.728-16.615,33.95,7.922,48.405,27.777l0.103,0.103
					c3.189,2.984,66.357,61.676,83.898,32.613c17.438-29.063-55.915-75.102-60.03-77.674c4.167,1.235,70.009,20.936,71.861-0.103
					c1.44-16.1-19.959-42.489-31.018-54.989c36.882,13.22,82.098,27.829,118.517,34.825
					C1699.481,2824.75,1644.132,2878.761,1564.606,2901.704z"/>
			</g>
			<g>
				<path style="fill:#5E2519;" d="M1564.592,2919.7c-4.492,0-8.892-1.685-12.268-4.827
					c-8.303-7.727-203.613-190.776-227.366-322.185c-13.228-73.193,11.968-109.504,35.432-127.075
					c26.938-20.168,62.561-22.942,72.988-17.722c3.677,1.836,7.854,3.923,65.325,71.279c6.453,7.566,5.554,18.928-2.009,25.383
					c-7.571,6.453-18.931,5.544-25.383-2.009c-20.762-24.336-44.307-51.277-53.535-60.967c-8.97,0.566-29.067,4.268-43.206,19.514
					c-16.423,17.712-21.191,46.375-14.177,85.193c19.177,106.108,173.054,260.288,208.992,295.088
					c56.631-18.772,108.005-59.871,89.971-197.244c-75.029-16.714-173.835-57.852-178.237-59.69
					c-9.172-3.835-13.499-14.382-9.666-23.555c3.838-9.172,14.382-13.496,23.555-9.668c1.106,0.464,111.418,46.384,183.748,60.166
					c7.483,1.426,13.257,7.405,14.424,14.932c21.941,141.729-17.334,222.019-123.599,252.678
					C1567.937,2919.468,1566.257,2919.7,1564.592,2919.7z"/>
			</g>
			<g>
				<path style="fill:#FFE2D4;" d="M1713.833,2402.018c-24.536,29.835-135.646,113.939-135.646,113.939l-90.122,91.872
					c0,0-3.138-1.08-8.488-3.087c-18.467-6.841-63.065-24.691-93.414-46.81c0,2.932-0.103,5.916-0.206,8.847
					c-1.029,28.96-6.79,57.304-24.897,60.185c-38.271,6.121-101.902-84.155-54.012-168.311
					c47.89-84.207,168.774-179.062,168.774-179.062s6.378-51.594,31.738-115.791c4.887-12.448,10.545-25.411,16.975-38.528
					c20.422-41.563,78.6-9.465,130.451,33.538c48.919,40.535,92.129,90.74,92.489,97.787
					C1748.246,2271.156,1738.318,2372.183,1713.833,2402.018z"/>
			</g>
			<g>
				<path style="fill:#F4BCB0;" d="M1561.931,2525.576l-82.355,79.165l-6.43,6.173c0,0-62.705-10.854-87.19-44.135
					c-9.002-12.191-12.86-27.366-6.636-46.141c23.302-70.061,78.137,16.821,78.137,16.821s73.456-55.864,86.47-140.791
					c13.014-84.979-36.368-232.868-36.368-232.868c4.887-12.448,10.545-25.411,16.975-38.528
					c20.422-41.563,78.6-9.465,130.451,33.538c16.512,26.955,30.607,57.458,41.203,87.087
					C1722.217,2318.583,1561.931,2525.576,1561.931,2525.576z"/>
			</g>
			<g>
				<path style="fill:#5E2519;" d="M1357.161,2645.274c-20.332,0-42.036-14.136-59.27-39.001
					c-24.207-34.929-40.432-96.88-6.489-156.523c43.618-76.699,142.629-159.543,167.644-179.795
					c3.423-21.155,15.713-84.075,49.324-152.61c11.638-23.718,33.628-33.596,61.931-27.81c40.547,8.281,89.91,48.125,124.18,80.093
					c7.148,6.67,69.893,65.752,70.974,86.011c0.671,12.686-7.732,121.282-37.705,157.8c-0.002,0.005-0.007,0.01-0.01,0.015
					c-24.514,29.81-121.975,104.185-137.627,116.055l-89.197,90.928c-4.851,4.949-12.112,6.672-18.662,4.434
					c-2.131-0.728-42.817-14.717-79.941-35.476c-3.271,23.938-12.439,51.199-38.413,55.349
					C1361.677,2645.098,1359.426,2645.274,1357.161,2645.274z M1555.266,2123.933c-0.044,0-0.081,0-0.125,0
					c-7.134,0.027-11.184,2.627-14.446,9.27c-37.681,76.836-46.921,147.908-47.009,148.616c-0.591,4.707-3.02,9.006-6.75,11.936
					c-1.182,0.928-118.679,93.691-164.238,173.799c-25.642,45.061-14.341,90.608,4.788,118.206
					c12.197,17.603,25.313,24.294,30.73,23.425c0.063-0.032,9.656-6.953,9.944-51.37c0.044-6.75,3.86-12.91,9.888-15.955
					s13.252-2.456,18.711,1.516c27.209,19.807,67.62,36.362,86.582,43.557l81.995-83.584c0.618-0.63,1.282-1.216,1.985-1.748
					c30.437-23.04,113.591-87.898,132.607-111.021c18.684-22.793,29.202-108.652,29.597-130.076
					C1714.822,2236.951,1606.15,2123.933,1555.266,2123.933z M1713.833,2402.017h0.049H1713.833z M1730.571,2262.339
					c0,0.002,0,0.002,0,0.002V2262.339z"/>
			</g>
			<g>
				<path style="fill:#5E2519;" d="M1386.11,2539.875c11.488,0.099,18.942,9.788,18.13,20.789
					c-0.1,23.635-34.387,24.551-35.741,0.947c-0.297-18.298-1.247-37.018-3.671-55.124c-0.863-4.627,2.309-9.101,6.993-9.722
					c9.52-0.832,11.072,11.421,14.993,17.512c6.229,13.16,11.818,26.571,17.013,40.188l-35.669,3.596
					c-0.126,4.403,2.301,10.231,6.087,13.342c3.982,3.25,7.042,4.298,11.865,4.48
					C1362.307,2575.146,1362.322,2540.608,1386.11,2539.875L1386.11,2539.875z"/>
			</g>
			<g>
				<path style="fill:#FF7F61;" d="M2375.45,2188.492c35.751,133.949,48.25,287.445,50,449.943c0,0-16.204,7.562-50,17.489
					c-62.396,18.364-184.72,44.856-375.458,46.81c-190.687-1.955-313.062-28.446-375.458-46.81
					c-33.796-9.928-49.999-17.489-49.999-17.489c1.749-162.498,14.249-315.994,49.999-449.943l-99.999-63.219
					c32.51-84.361,76.079-137.19,116.1-170.111c43.467-35.751,82.715-48.096,99.176-51.954c5.247-1.286,8.179-1.646,8.179-1.646
					h504.006c0,0,2.932,0.36,8.179,1.646c16.461,3.858,55.709,16.204,99.176,51.954c40.02,32.921,83.59,85.75,116.1,170.111
					L2375.45,2188.492z"/>
			</g>
			<g>
				<path style="fill:#DD5237;" d="M2375.45,2655.924c-62.396,18.364-184.72,44.856-375.458,46.81
					c-190.687-1.955-313.062-28.446-375.458-46.81c-31.738-120.678,4.424-331.94,6.481-343.463
					c-0.617,11.265-7.973,206.376,203.135,295.521c103.548,43.724,220.934,44.753,325.151,2.675
					c224.226-90.431,209.617-298.71,209.617-298.71S2408.115,2531.8,2375.45,2655.924z"/>
			</g>
			<g>
				<path style="fill:#DD5237;" d="M2359.35,1955.161c-91.1,35.802-212.909,50.925-359.358,50.925
					c-146.449,0-268.258-15.123-359.358-50.925c43.467-35.751,82.715-48.096,99.176-51.954
					c73.61,16.307,161.006,23.559,260.182,23.559c99.176,0,186.572-7.253,260.182-23.559
					C2276.635,1907.065,2315.883,1919.411,2359.35,1955.161z"/>
			</g>
			<g>
				<path style="fill:#5E2519;" d="M1607.002,2184.407c19.49-57.007,42.866-112.74,75.035-163.648
					c1.959-3.082,6.917-0.532,5.384,2.886c-22.549,53.971-36.045,111.67-45.382,169.116
					C1637.024,2218.159,1600.033,2209.429,1607.002,2184.407L1607.002,2184.407z"/>
			</g>
			<g>
				<path style="fill:#5E2519;" d="M2000.188,2720.74c-294.719-3.066-427.725-63.389-433.242-65.955
					c-6.414-2.983-10.486-9.446-10.41-16.519c1.943-181.65,16.99-322.485,47.261-441.57l-88.879-56.23
					c-7.258-4.592-10.264-13.677-7.173-21.692c81.99-212.639,231.611-234.26,237.942-235.078
					c9.866-1.274,18.884,5.691,20.159,15.554c1.272,9.861-5.691,18.887-15.554,20.159c-5.271,0.73-128.865,19.846-203.459,198.638
					l87.329,55.249c6.653,4.209,9.8,12.251,7.769,19.858c-31.008,116.165-46.702,254.092-49.236,433.23
					c36.357,13.687,167.444,55.85,407.495,58.35c239.683-2.5,370.718-44.646,407.119-58.35
					c-2.534-179.138-18.228-317.065-49.236-433.23c-2.031-7.607,1.116-15.649,7.769-19.858l87.327-55.247
					c-75.227-180.083-202.153-198.472-203.457-198.64c-9.863-1.272-16.826-10.298-15.554-20.159
					c1.272-9.861,10.273-16.833,20.159-15.554c6.331,0.818,155.952,22.439,237.942,235.078c3.091,8.015,0.085,17.1-7.173,21.692
					l-88.879,56.23c30.271,119.084,45.317,259.919,47.261,441.57c0.076,7.073-3.997,13.535-10.41,16.519
					C2427.537,2657.351,2294.531,2717.674,2000.188,2720.74z"/>
			</g>
			<g>
				<path style="fill:#5E2519;" d="M2357.937,2192.612c-9.344-57.41-22.831-115.064-45.374-169.002
					c-1.448-3.325,3.423-6.005,5.399-2.851c24.192,37.849,43.013,79.118,59.518,120.915c5.488,14.082,10.654,27.976,15.517,42.732
					c3.125,9.48-2.028,19.7-11.509,22.825C2370.956,2210.822,2359.403,2203.623,2357.937,2192.612L2357.937,2192.612z"/>
			</g>
			<g>
				<path style="fill:#5E2519;" d="M2003.062,2147.119c-112.156,0-203.398-85.408-203.398-190.388
					c0-104.983,91.243-190.391,203.398-190.391s203.398,85.408,203.398,190.391
					C2206.46,2061.712,2115.217,2147.119,2003.062,2147.119z M2003.062,1792.058c-97.974,0-177.681,73.872-177.681,164.673
					c0,90.798,79.707,164.67,177.681,164.67s177.681-73.872,177.681-164.67C2180.742,1865.931,2101.035,1792.058,2003.062,1792.058z
					"/>
			</g>
			<g>
				<path style="fill:#FFE2D4;" d="M2152.511,1938.289c0,22.531-5.761,43.827-15.998,62.653
					c-24.537,45.421-75.051,76.594-133.435,76.594c-58.127,0-108.538-30.915-133.229-76.079
					c-10.391-18.981-16.255-40.432-16.255-63.168c0-6.018,0.411-11.883,1.234-17.695c9.311-68.569,72.118-121.603,148.249-121.603
					c75.925,0,138.579,52.726,148.146,121.038C2152.099,1925.995,2152.511,1932.116,2152.511,1938.289z"/>
			</g>
			<g>
				<path style="fill:#F4BCB0;" d="M2152.511,1938.289c0,22.531-5.761,43.827-15.998,62.653
					c-42.695,3.498-88.271,5.144-136.521,5.144c-45.884,0-89.299-1.492-130.142-4.629c-10.391-18.981-16.255-40.432-16.255-63.168
					c0-6.018,0.411-11.883,1.234-17.695c45.01,4.218,93.466,6.173,145.163,6.173c54.012,0,104.526-2.16,151.233-6.739
					C2152.099,1925.995,2152.511,1932.116,2152.511,1938.289z"/>
			</g>
			<g>
				<path style="fill:#5E2519;" d="M2003.062,2092.986c-90.93,0-164.907-69.399-164.907-154.702
					c0-85.303,73.977-154.702,164.907-154.702s164.907,69.399,164.907,154.702
					C2167.969,2023.587,2093.992,2092.986,2003.062,2092.986z M2003.062,1814.446c-73.911,0-134.043,55.554-134.043,123.838
					c0,68.284,60.132,123.838,134.043,123.838s134.043-55.554,134.043-123.838C2137.104,1870,2076.973,1814.446,2003.062,1814.446z"
					/>
			</g>
			<g>
				<path style="fill:#F7944B;" d="M2508.105,768.264c-164.267-274.459-751.99-454.206-1101.765,14.284
					c0,0,58.771-11.988,116.163,8.673c0,0-155.236,156.774-138.674,370.366s236.622,318.331,236.622,318.331l943.032-73.663
					C2769.81,1248.821,2719.12,654.76,2508.105,768.264z"/>
			</g>
			<g>
				<path style="fill:#DB6F26;" d="M1406.341,1143.221c0,0,72.035,35.2,118.203-70.4c46.168-105.6,31.629-289.253,31.629-289.253
					l-87.235-14.539c0,0,248.951-200.232,496.372-154.829c0,0-156.445,42.342-236.878,154.829c0,0-30.949,85.96-30.438,142.076
					c0,0,91.826-116.823,187.734-120.905s180.586-116.823,163.754-166.818c0,0,35.458-4.081,78.565,13.774
					c0,0-87.877,114.273-5.422,273.438s293.655,168.151,293.655,168.151s1.915-276.324-36.73-375.526
					c0,0,53.594,37.496,84.188,102.539c0,0-12.854,194.366,76.21,312.209s113.55-58.157,113.55-58.157
					s10.741,229.566-107.499,328.279c-118.24,98.713-965.337,91.826-965.337,91.826l-113.968-110.163
					C1466.693,1369.754,1414.909,1270.104,1406.341,1143.221z"/>
			</g>
			<g>
				<path style="fill:#5E2519;" d="M1620.452,1497.92c-2.671,0-5.315-0.593-7.737-1.746c-9.37-4.46-229.666-111.763-246.836-333.196
					c-13.521-174.377,81.262-310.325,123.953-362.026c-42.163-8.086-79.475-0.847-79.924-0.757
					c-7.329,1.47-14.788-1.729-18.77-8.032c-3.984-6.304-3.687-14.409,0.776-20.386c151.277-202.62,365.349-307.471,602.847-295.413
					c110.479,5.64,219.958,36.523,316.599,89.311c86.66,47.336,158.318,110.654,203.521,179.517
					c54.568-22.087,105.474-3.547,141.521,52.361c44.858,69.58,65.173,191.457,53.015,318.071
					c-13.296,138.472-62.505,249.617-135.012,304.941c-2.756,2.102-6.062,3.364-9.519,3.635l-943.032,73.664
					C1621.387,1497.903,1620.918,1497.92,1620.452,1497.92z M1447.849,761.07c22.866,0,51.851,2.808,80.752,13.213
					c5.784,2.083,10.105,6.973,11.462,12.969c1.355,5.996-0.442,12.268-4.768,16.638c-1.482,1.501-149.219,153.787-133.518,356.306
					c14.358,185.149,192.798,285.942,222.307,301.379l932.566-72.847c62.336-50.398,104.844-150.75,116.924-276.543
					c11.245-117.136-7.373-232.979-47.437-295.12c-29.587-45.893-65.4-56.665-109.504-32.947
					c-8.472,4.553-19.033,1.648-23.977-6.609c-87.122-145.564-292.62-254.612-499.731-265.183
					c-212.236-10.85-404.907,77.219-546.819,248.747C1446.685,761.072,1447.263,761.07,1447.849,761.07z"/>
			</g>
			<g>
				<ellipse style="fill:#FFE2D4;" cx="1442.491" cy="1506.44" rx="125.878" ry="139.27"/>
			</g>
			<g>
				<path style="fill:#F4BCB0;" d="M1316.613,1506.453c0,76.902,56.327,139.247,125.873,139.247
					c52.16,0,96.964-35.133,116.048-85.184c-21.09,27.675-52.674,45.216-87.962,45.216c-63.631,0-115.173-56.995-115.173-127.365
					c0-43.672,19.856-82.149,50.102-105.091C1354.009,1390.713,1316.613,1443.748,1316.613,1506.453z"/>
			</g>
			<g>
				<path style="fill:#5E2519;" d="M1442.49,1663.714c-79.336,0-143.879-70.552-143.879-157.273s64.543-157.273,143.879-157.273
					c79.338,0,143.882,70.552,143.882,157.273S1521.829,1663.714,1442.49,1663.714z M1442.49,1385.174
					c-59.48,0-107.874,54.402-107.874,121.267c0,66.865,48.394,121.267,107.874,121.267c59.482,0,107.876-54.402,107.876-121.267
					C1550.366,1439.575,1501.973,1385.174,1442.49,1385.174z"/>
			</g>
			<g>
				<ellipse style="fill:#FFE2D4;" cx="2557.509" cy="1506.44" rx="125.878" ry="139.27"/>
			</g>
			<g>
				<path style="fill:#F4BCB0;" d="M2683.369,1506.453c0,76.902-56.327,139.247-125.873,139.247
					c-52.16,0-96.964-35.133-116.048-85.184c21.091,27.675,52.674,45.216,87.962,45.216c63.631,0,115.173-56.995,115.173-127.365
					c0-43.672-19.856-82.149-50.102-105.091C2645.972,1390.713,2683.369,1443.748,2683.369,1506.453z"/>
			</g>
			<g>
				<path style="fill:#5E2519;" d="M2557.51,1663.714c-79.338,0-143.882-70.552-143.882-157.273s64.543-157.273,143.882-157.273
					c79.336,0,143.879,70.552,143.879,157.273S2636.846,1663.714,2557.51,1663.714z M2557.51,1385.174
					c-59.482,0-107.876,54.402-107.876,121.267c0,66.865,48.394,121.267,107.876,121.267c59.48,0,107.874-54.402,107.874-121.267
					C2665.383,1439.575,2616.99,1385.174,2557.51,1385.174z"/>
			</g>
			<g>
				<path style="fill:#FFE2D4;" d="M2482.088,1280.96c0.765,60.452,10.713,120.905,10.713,120.905
					c161.344,414.481-56.116,549.13-492.801,549.13s-654.146-134.649-492.801-549.13c0,0,9.948-60.452,10.713-120.905
					c0,0-24.997-308.638,147.432-384.14c0,0-21.936,69.635,7.142,160.696c0,0,130.087-211.2,378.783-195.131
					c32.674,209.176,192.781,317.674,425.461,368.836L2482.088,1280.96z"/>
			</g>
			<g>
				<path style="fill:#F4BCB0;" d="M1657.661,974.103c-110.184,54.475-135.441,207.559-140.07,302.106
					c-2.263-39.043-12.14-309.359,147.683-379.317C1664.811,898.589,1655.809,928.579,1657.661,974.103z"/>
			</g>
			<g>
				<path style="fill:#F4BCB0;" d="M2544.224,1674.917c-5.247-57.767-22.067-123.918-51.44-199.38c0,0-9.928-60.442-10.699-120.935
					l-5.35-49.742c-232.662-51.131-392.794-159.617-425.458-368.823c-248.711-16.049-378.802,195.162-378.802,195.162
					c-17.747-55.709-16.461-103.342-12.809-131.994c2.212,17.952,6.173,37.602,12.809,58.333c0,0,130.091-211.211,378.802-195.162
					c32.664,209.205,192.796,317.692,425.458,368.823l5.35,49.742c0.771,60.493,10.699,120.935,10.699,120.935
					C2535.531,1511.596,2551.683,1601.719,2544.224,1674.917z"/>
			</g>
			<g>
				<path style="fill:#F4BCB0;" d="M1517.59,1276.209c0.154,3.086,0.309,4.732,0.309,4.732c-0.155,11.574-0.617,23.148-1.286,34.31
					C1516.613,1304.037,1516.87,1290.817,1517.59,1276.209z"/>
			</g>
			<g>
				<path style="fill:#F4BCB0;" d="M1665.274,970.554c-0.257,0.977-3.395,11.317-5.607,28.652
					c-1.029-8.796-1.698-17.181-2.006-25.103C1660.13,972.868,1662.702,971.634,1665.274,970.554z"/>
			</g>
			<g>
				<path style="fill:#F4BCB0;" d="M1999.992,1950.995c-431.27,0-648.706-131.326-498.605-533.79
					c-102.159,341.097,105.966,454.47,498.605,454.47s600.816-113.373,498.605-454.47
					C2648.698,1819.669,2431.262,1950.995,1999.992,1950.995z"/>
			</g>
			<g>
				<path style="fill:#F4BCB0;" d="M1508.177,1395.548c-0.617,4.064-0.977,6.327-0.977,6.327
					c-2.006,5.144-3.961,10.236-5.813,15.329C1503.496,1410.106,1505.759,1402.853,1508.177,1395.548z"/>
			</g>
			<g>
				<path style="fill:#5E2519;" d="M2122.624,1720.39c-17.027,3.909-37.5,1.8-60.39-9.362c0,0-0.052,0-0.052-0.052
					c-38.22-22.839-86.161-22.839-124.381,0c0,0.052,0,0.052-0.052,0.052c-22.891,11.162-43.364,13.271-60.39,9.362
					c-41.306-9.465-62.294-54.166-48.765-89.968c0,0,20.525-81.121,109.464-113.219c39.917-14.352,83.95-14.352,123.867,0
					c88.939,32.098,109.463,113.219,109.463,113.219C2184.918,1666.224,2163.93,1710.925,2122.624,1720.39z"/>
			</g>
			<g>
				<path style="fill:#FF8888;" d="M2122.624,1720.39c-17.027,3.909-37.5,1.8-60.39-9.362c0,0-0.052,0-0.052-0.052
					c-38.22-22.839-86.161-22.839-124.381,0c0,0.052,0,0.052-0.052,0.052c-22.891,11.162-43.364,13.271-60.39,9.362
					c13.117-50.411,63.014-87.962,122.632-87.962C2059.611,1632.429,2109.507,1669.979,2122.624,1720.39z"/>
			</g>
			<g>
				<path style="fill:#5E2519;" d="M2000,1968.997c-272.439,0-441.663-53.797-517.339-164.463
					c-64.758-94.697-62.451-227.974,7.058-407.388c1.602-10.32,9.443-63.252,10.181-115.605
					c-1.685-22.234-20.916-322.773,158.223-401.211c6.465-2.832,13.994-1.621,19.25,3.096c5.254,4.717,7.266,12.07,5.144,18.806
					c-0.159,0.508-14.304,47.8-2.009,113.616c48.833-60.752,173.513-184.258,371.921-171.428
					c8.416,0.544,15.327,6.855,16.628,15.188c28.684,183.643,163.301,299.446,411.541,354.031
					c7.556,1.66,13.206,7.964,14.033,15.654l5.356,49.739c0.061,0.566,0.095,1.133,0.103,1.702
					c0.667,52.615,8.579,106.04,10.19,116.414c69.509,179.414,71.816,312.69,7.058,407.388
					C2441.663,1915.2,2272.439,1968.997,2000,1968.997z M1640.835,931.761c-123.84,92.073-105.198,345.007-104.976,347.754
					c0.044,0.554,0.063,1.118,0.056,1.672c-0.776,61.108-10.535,121.079-10.95,123.601c-0.205,1.235-0.535,2.444-0.989,3.608
					c-65.562,168.418-69.353,291.348-11.594,375.813c68.462,100.115,227.961,148.782,487.617,148.782
					s419.155-48.667,487.617-148.782c57.759-84.465,53.967-207.395-11.594-375.813c-0.454-1.164-0.784-2.373-0.989-3.608
					c-0.413-2.51-10.083-61.934-10.938-122.742l-3.887-36.096c-250.002-57.864-388.984-177.83-424.236-366.257
					c-225.625-6.56-346.946,185.305-348.171,187.285c-3.699,5.974-10.535,9.267-17.515,8.398
					c-6.975-0.859-12.817-5.689-14.954-12.383C1638.218,1009.388,1637.771,962.82,1640.835,931.761z"/>
			</g>
			<g>
				<g>
					<path style="fill:#57D7FF;" d="M1536.263,1499.817c-34.31,12.808-20.01,179.679-98.919,169.854
						c-34.876-4.321-56.944-37.14-53.034-69.135c1.029-9.002,4.167-17.901,9.619-26.131c12.346-18.621,31.893-33.076,52.572-44.032
						C1488.938,1507.79,1536.263,1499.817,1536.263,1499.817z"/>
				</g>
				<g>
					<path style="fill:#46BDF9;" d="M1536.263,1499.817c-34.31,12.808-20.01,179.679-98.919,169.854
						c-34.876-4.321-56.944-37.14-53.034-69.135c22.891,63.117,106.172,31.738,101.439-20.627
						c-4.733-52.726-40.792-37.242-40.792-37.242l1.543-12.294C1488.938,1507.79,1536.263,1499.817,1536.263,1499.817z"/>
				</g>
				<g style="opacity:0.73;">
					<path style="fill:#FFFFFF;" d="M1406.937,1603.325c1.85-9.44,7.185-17.815,14.448-24.122
						c12.399-10.765,33.897-25.659,43.841-10.01C1478.363,1589.868,1398.721,1645.238,1406.937,1603.325z"/>
				</g>
				<g>
					<path style="fill:#369EF2;" d="M1444.341,1682.994c-2.756,0-5.613-0.178-8.582-0.549c-25.31-3.157-46.912-19.18-57.788-42.864
						c-10.947-23.843-8.997-50.874,5.225-72.305c40.388-60.869,146.445-79.385,150.942-80.144
						c6.543-1.111,12.839,2.944,14.558,9.348c1.719,6.399-1.709,13.057-7.915,15.378c-6.736,2.974-13.799,35.503-18.02,54.939
						C1512.029,1616.214,1497.524,1682.991,1444.341,1682.994z M1507.998,1519.827c-32.168,9.309-81.243,28.318-103.372,61.667
						c-9.26,13.958-10.488,31.66-3.281,47.354c7.131,15.532,21.187,26.028,37.598,28.074c34.185,4.277,46.357-38.821,58.684-95.581
						C1501.006,1545.777,1504.087,1531.59,1507.998,1519.827z"/>
				</g>
			</g>
			<g>
				<g>
					<path style="fill:#57D7FF;" d="M1343.442,1829.623c-41.803,12.437-93.901,54.51-63.901,102.276
						c6.891,10.971,17.421,19.446,29.824,23.187C1359.122,1970.09,1324.626,1878.754,1343.442,1829.623z"/>
				</g>
				<g style="opacity:0.73;">
					<ellipse style="fill:#FFFFFF;" cx="1298.294" cy="1901.553" rx="13.774" ry="19.513"/>
				</g>
				<g>
					<path style="fill:#369EF2;" d="M1319.192,1969.588c-4.18,0-8.696-0.73-13.54-2.19c-15.117-4.558-28.257-14.736-37.002-28.657
						c-11.633-18.525-13.97-38.433-6.758-57.573c11.934-31.663,47.715-54.895,77.883-63.872c4.695-1.396,9.773-0.002,13.101,3.589
						c3.33,3.591,4.326,8.765,2.576,13.337c-6.436,16.802-5.671,41.416-4.998,63.132c0.911,29.348,1.697,54.695-13.818,66.599
						C1331.743,1967.705,1325.906,1969.588,1319.192,1969.588z M1325.525,1850.906c-17.183,9.158-33.394,22.954-39.565,39.333
						c-4.39,11.65-2.927,23.039,4.473,34.819c5.437,8.66,13.481,14.951,22.646,17.715c5.22,1.577,7.507,1.074,7.9,0.771
						c5.056-3.877,4.248-29.866,3.767-45.393C1324.275,1882.937,1323.762,1866.441,1325.525,1850.906z"/>
				</g>
			</g>
			<g>
				<path style="fill:#5E2519;" d="M1615.974,1446.917c18.908-66.306,107.124-69.301,156.562-37.147
					c16.754,10.375,32.237,24.301,40.9,43.302c2.392,5.247,0.078,11.44-5.169,13.831c-3.559,1.64-7.368,1.024-10.433-0.95
					c-27.523-15.202-57.26-26.325-87.617-31.58c-31.515-5.088-57.972-1.849-85.287,18.347
					C1620.925,1456.071,1614.564,1451.873,1615.974,1446.917L1615.974,1446.917z"/>
			</g>
			<g>
				<path style="fill:#5E2519;" d="M1641.082,1328.792c34.553-15.954,68.366-31.599,96.703-56.753
					c9.651-8.068,17.845-17.411,26.845-26.292c2.879-3.209,7.956-3.493,10.904-0.219c1.622,1.772,2.18,4.18,1.726,6.367
					c-2.224,10.853-6.608,21.02-12.311,30.522c-26.126,39.553-76.578,61.774-123.295,53.761
					C1637.927,1335.529,1637.529,1330,1641.082,1328.792L1641.082,1328.792z"/>
			</g>
			<g>
				<g>
					<path style="fill:#57D7FF;" d="M2463.737,1499.817c34.311,12.808,20.01,179.679,98.919,169.854
						c34.876-4.321,56.944-37.14,53.034-69.135c-1.029-9.002-4.167-17.901-9.619-26.131c-12.346-18.621-31.893-33.076-52.572-44.032
						C2511.062,1507.79,2463.737,1499.817,2463.737,1499.817z"/>
				</g>
				<g>
					<path style="fill:#46BDF9;" d="M2463.737,1499.817c34.311,12.808,20.01,179.679,98.919,169.854
						c34.876-4.321,56.944-37.14,53.034-69.135c-22.891,63.117-106.172,31.738-101.439-20.627
						c4.733-52.726,40.792-37.242,40.792-37.242l-1.543-12.294C2511.062,1507.79,2463.737,1499.817,2463.737,1499.817z"/>
				</g>
				<g style="opacity:0.73;">
					<path style="fill:#FFFFFF;" d="M2593.063,1603.325c-1.85-9.44-7.184-17.815-14.448-24.122
						c-12.399-10.765-33.897-25.659-43.841-10.01C2521.637,1589.868,2601.279,1645.238,2593.063,1603.325z"/>
				</g>
				<g>
					<path style="fill:#369EF2;" d="M2555.659,1682.994c-53.191,0-67.688-66.777-78.42-116.196
						c-4.221-19.439-11.287-51.975-18.022-54.941c-6.211-2.319-9.636-8.977-7.917-15.378c1.719-6.401,8.042-10.44,14.563-9.346
						c4.497,0.759,110.554,19.275,150.942,80.144c14.221,21.431,16.172,48.462,5.225,72.305
						c-10.876,23.684-32.478,39.707-57.788,42.864C2561.277,1682.813,2558.413,1682.994,2555.659,1682.994z M2492.002,1519.827
						c3.911,11.763,6.992,25.95,10.371,41.514c12.327,56.763,24.451,99.837,58.684,95.581c16.411-2.046,30.466-12.542,37.598-28.074
						c7.207-15.693,5.979-33.396-3.281-47.354C2573.245,1548.145,2524.17,1529.136,2492.002,1519.827z"/>
				</g>
			</g>
			<g>
				<g>
					<path style="fill:#57D7FF;" d="M2656.558,1829.623c41.803,12.437,93.901,54.51,63.901,102.276
						c-6.89,10.971-17.421,19.446-29.824,23.187C2640.878,1970.09,2675.374,1878.754,2656.558,1829.623z"/>
				</g>
				<g style="opacity:0.73;">
					<ellipse style="fill:#FFFFFF;" cx="2701.706" cy="1901.553" rx="13.774" ry="19.513"/>
				</g>
				<g>
					<path style="fill:#369EF2;" d="M2680.808,1969.588c-6.714,0-12.549-1.88-17.444-5.635
						c-15.515-11.904-14.729-37.251-13.818-66.599c0.674-21.716,1.438-46.33-4.998-63.132c-1.75-4.573-0.754-9.746,2.576-13.337
						c3.33-3.596,8.416-4.973,13.101-3.589c30.168,8.977,65.95,32.21,77.883,63.872c7.212,19.141,4.875,39.048-6.758,57.573
						c-8.745,13.921-21.885,24.099-37.002,28.657C2689.507,1968.858,2684.985,1969.588,2680.808,1969.588z M2674.475,1850.906
						c1.763,15.535,1.25,32.031,0.779,47.246c-0.481,15.527-1.289,41.516,3.767,45.393c0.391,0.303,2.678,0.806,7.9-0.771
						c9.165-2.764,17.209-9.055,22.646-17.715c7.4-11.78,8.862-23.169,4.473-34.819
						C2707.869,1873.86,2691.658,1860.064,2674.475,1850.906z"/>
				</g>
			</g>
			<g>
				<path style="fill:#5E2519;" d="M2375.071,1452.72c-39.68-30.493-86.103-21.8-129.551-6.469
					c-14.734,5.364-29.087,11.719-43.353,19.702c-5.096,3.454-12.2,2.019-15.213-3.452c-1.677-2.995-1.693-6.518-0.389-9.429
					c8.663-19.001,24.145-32.927,40.899-43.303c34.625-20.84,79.901-28.249,117.813-9.356c9.536,4.922,18.184,11.638,24.879,19.683
					c4.877,5.775,21.383,30.523,9.726,33.65C2378.135,1454.171,2376.401,1453.739,2375.071,1452.72L2375.071,1452.72z"/>
			</g>
			<g>
				<path style="fill:#5E2519;" d="M2358.347,1336.177c-49.997,8.51-105.778-17.617-128.561-63.532
					c-3.426-6.468-5.333-13.698-7.045-20.75c-0.834-3.887,1.639-7.713,5.524-8.547c2.759-0.608,5.298,0.503,7.105,2.4
					c17.068,17.847,34.563,34.894,55.722,47.922c21.306,13.757,44.272,24.141,67.826,35.122
					C2362.478,1330.002,2362.063,1335.569,2358.347,1336.177L2358.347,1336.177z"/>
			</g>
			<g>
				<path style="fill:#5E2519;" d="M1893.337,1737.718c-21.267,0-40.701-7.268-56.477-21.653
					c-25.205-22.983-34.382-59.192-22.979-90.339c2.759-9.99,27.5-90.036,118.938-123.018c43.323-15.627,91.033-15.622,134.351,0
					c91.438,32.981,116.182,113.03,118.94,123.018c11.401,31.15,2.224,67.358-22.981,90.339
					c-27.842,25.381-67.073,28.606-107.651,8.835c-0.046-0.022-0.093-0.046-0.142-0.068c-0.354-0.178-0.769-0.408-1.108-0.61
					c-33.442-20.02-75.015-20.022-108.477,0.007c-0.215,0.129-0.476,0.278-0.696,0.393c-0.171,0.093-0.369,0.193-0.542,0.278
					C1926.931,1733.467,1909.597,1737.718,1893.337,1737.718z M1999.995,1521.851c-19.211,0-38.418,3.296-56.704,9.89
					c-79.685,28.743-98.965,99.521-99.746,102.522c-0.137,0.527-0.317,1.104-0.51,1.614c-7.288,19.289-1.277,42.886,14.622,57.38
					c17.898,16.326,44.424,17.82,72.842,4.138c42.654-25.425,95.977-25.483,139.036,0.02c28.406,13.66,54.91,12.156,72.8-4.155
					c15.898-14.495,21.912-38.093,14.624-57.383c-0.205-0.545-0.381-1.101-0.525-1.665c-0.767-2.949-20.049-73.728-99.736-102.471
					C2038.418,1525.147,2019.204,1521.851,1999.995,1521.851z"/>
			</g>
			<g>
				<path style="fill:#5E2519;" d="M1647.501,894.419c6.906-32.264,21.497-62.514,39.199-90.129
					c38.734-60.066,95.123-106.741,158.623-138.296c19.862-10.459,43.275-19.505,64.014-27.592c3.405-1.344,6.034,3.743,2.519,5.544
					c-19.893,9.726-42.045,20.31-60.821,32.278c-6.004,3.466-13.753,8.145-19.146,12.263
					c-49.275,33.254-92.687,77.822-120.598,130.276c-6.864,12.389-13.064,26.75-17.834,40c-4.576,13.024-8.536,26.849-10.27,40.459
					C1680.583,924.478,1643.404,919.667,1647.501,894.419L1647.501,894.419z"/>
			</g>
			<g>
				<path style="fill:#5E2519;" d="M2033.444,864.917c-2.6-66.989,13.7-136.639,54.84-190.359
					c2.975-3.459,10.401-11.889,13.449-15.393c2.417-2.765,6.906,0.544,4.844,3.672c-2.573,3.919-8.472,12.984-10.937,16.753
					c-2.911,5.668-6.223,11.731-9.019,17.376c-15.949,35.382-22.656,74.419-22.219,113.01c0.276,16.537,1.483,33.824,4.692,49.88
					C2073.533,884.984,2036.248,890.423,2033.444,864.917L2033.444,864.917z"/>
			</g>
			<g>
				<path style="fill:#5E2519;" d="M2481.452,1213.848c35.282,9.592,73.651,12.867,109.692,5.74c0,0-5.326,25.239-5.326,25.239
					c-12.529-10.71-22.91-21.594-33.769-33.506c-51.194-57.692-90.195-127.318-109.237-202.182
					c-8.338-29.622-11.792-60.259-14.228-90.645c-0.213-3.635,5.487-4.83,6.09-0.493c13.866,118.125,75.812,229.928,168.655,304.158
					c6.276,4.753,7.51,13.696,2.757,19.97c-2.087,2.751-4.954,4.522-8.082,5.269c-10.366,2.649-20.854,4.91-31.377,6.033
					c-31.752,3.584-63.32,1.85-94.618-4.834C2448.089,1242.162,2457.588,1207.284,2481.452,1213.848L2481.452,1213.848z"/>
			</g>
			<g>
				<path style="fill:#5E2519;" d="M1671.052,2767.451c-74.26-23.377-144.115-57.531-208.528-100.893
					c-7.348-5.047-0.327-16.336,7.471-11.814c32.698,18.773,66.71,35.167,101.783,48.942c34.582,13.665,71.188,25.68,107.114,33.902
					C1699.283,2742.905,1691.552,2772.826,1671.052,2767.451L1671.052,2767.451z"/>
			</g>
			<g>
				<path style="fill:#5E2519;" d="M1621.937,2880.796c-39.79-32.681-76.552-67.917-110.553-106.428
					c-11.277-12.761-21.924-26.109-32.2-39.698c-2.329-3.079-1.72-7.463,1.359-9.792c2.964-2.247,7.147-1.752,9.523,1.021
					c11.097,12.361,22.492,24.426,34.507,35.92c35.818,34.359,75.094,66.081,115.819,94.226
					C1657.465,2868.494,1638.846,2893.643,1621.937,2880.796L1621.937,2880.796z"/>
			</g>
			<g style="opacity:0.5;">
				<path style="fill:#FFFFFF;" d="M2455.05,747.858c-121.415-172.429-493.355-332.576-834.599-126.516
					C1884.236,502.84,2229.055,560.124,2455.05,747.858z"/>
			</g>
			<g style="opacity:0.5;">
				<path style="fill:#FFFFFF;" d="M2521.369,798.873c0,0,35.2-26.528,73.206,0c38.006,26.528,51.27,125.496,51.27,125.496
					s-26.528-85.705-81.623-94.887C2509.125,820.299,2509.125,817.238,2521.369,798.873z"/>
			</g>
		</g>
	</g>
</g>
</svg>
